<?xml version="1.0" encoding="UTF-8" standalone="no" ?>
<!DOCTYPE svg PUBLIC "-//W3C//DTD SVG 1.1//EN" "http://www.w3.org/Graphics/SVG/1.1/DTD/svg11.dtd">
<svg xmlns="http://www.w3.org/2000/svg" xmlns:xlink="http://www.w3.org/1999/xlink" version="1.1" width="640" height="640" viewBox="0 0 640 640" xml:space="preserve">
<desc>Created with Fabric.js 5.3.0</desc>
<defs>
</defs>
<g transform="matrix(1 0 0 1 292.2374429224 316.3470319635)" id="QypAGNHLQ4-icFrWDeYI7"  >
<g style="" vector-effect="non-scaling-stroke"   >
		<g transform="matrix(1 0 0 1 -168.9965753416 33.2488749598)" id="tsB10AS1IuJlPpCGvlhxp"  >
<path style="stroke: rgb(0,0,0); stroke-width: 1; stroke-dasharray: none; stroke-linecap: butt; stroke-dashoffset: 0; stroke-linejoin: miter; stroke-miterlimit: 4; fill: rgb(255,255,255); fill-opacity: 0; fill-rule: nonzero; opacity: 1;" vector-effect="non-scaling-stroke"  transform=" translate(0, 0)" d="M 0 0" stroke-linecap="round" />
</g>
		<g transform="matrix(2.8055543213 0 0 2.8055543027 19.4965753433 -56.3348781309)" id="0fvaCdE9r8w4ruPUqpjUL"  >
<path style="stroke: none; stroke-width: 1; stroke-dasharray: none; stroke-linecap: butt; stroke-dashoffset: 0; stroke-linejoin: miter; stroke-miterlimit: 4; fill: rgb(0,0,0); fill-rule: nonzero; opacity: 1;" vector-effect="non-scaling-stroke"  transform=" translate(-40, -9.2063708499)" d="M 38.9 9.2 C 38.9 8.6 39.4 8.1 40 8.1 C 40.6 8.1 41.1 8.6 41.1 9.2 C 41.1 9.799999999999999 40.6 10.299999999999999 40 10.299999999999999 C 39.4 10.4 38.9 9.9 38.9 9.2 z" stroke-linecap="round" />
</g>
		<g transform="matrix(2.8055543213 0 0 2.8055543027 19.4965753433 10.8402736535)" id="jx0if27RDQOdG7BzxhsTG"  >
<path style="stroke: none; stroke-width: 1; stroke-dasharray: none; stroke-linecap: butt; stroke-dashoffset: 0; stroke-linejoin: miter; stroke-miterlimit: 4; fill: rgb(0,0,0); fill-rule: nonzero; opacity: 1;" vector-effect="non-scaling-stroke"  transform=" translate(-40, -33.15)" d="M 5 11.7 L 75 11.7 L 75 54.599999999999994 L 5 54.599999999999994 L 5 11.7 z" stroke-linecap="round" />
</g>
		<g transform="matrix(1.117796403 0 0 1.1177963956 19.4965753433 -8.241765733)" id="sgokHdbcDtPGYAwxAWhVl"  >
<g style="" vector-effect="non-scaling-stroke"   >
		<g transform="matrix(3.7659885915 0 0 3.8793103448 0 0)" id="WQKxEe2QulJxr96pJfDeL"  >
<path style="stroke: none; stroke-width: 1; stroke-dasharray: none; stroke-linecap: butt; stroke-dashoffset: 0; stroke-linejoin: miter; stroke-miterlimit: 4; fill: rgb(0,0,0); fill-rule: nonzero; opacity: 1;" vector-effect="non-scaling-stroke"  transform=" translate(-40, -40)" d="M 74.6 16.8 L 5.4 16.8 L 5.4 16.8 C 4.9 16.8 4.5 17.2 4.5 17.7 L 4.5 62.3 C 4.5 62.8 4.9 63.199999999999996 5.4 63.199999999999996 L 74.60000000000001 63.199999999999996 C 75.10000000000001 63.199999999999996 75.50000000000001 62.8 75.50000000000001 62.3 L 75.50000000000001 17.7 C 75.5 17.2 75.1 16.8 74.6 16.8 z" stroke-linecap="round" />
</g>
		<g transform="matrix(3.5461905711 0 0 3.2297927422 0 -6.2090201539)" id="lHDHs0J6ME8Ig-wfl-U7e"  >
<path style="stroke: none; stroke-width: 1; stroke-dasharray: none; stroke-linecap: butt; stroke-dashoffset: 0; stroke-linejoin: miter; stroke-miterlimit: 4; fill: rgb(255,255,255); fill-rule: nonzero; opacity: 1;" vector-effect="non-scaling-stroke"  transform=" translate(-40, -40)" d="M 74.6 16.8 L 5.4 16.8 L 5.4 16.8 C 4.9 16.8 4.5 17.2 4.5 17.7 L 4.5 62.3 C 4.5 62.8 4.9 63.199999999999996 5.4 63.199999999999996 L 74.60000000000001 63.199999999999996 C 75.10000000000001 63.199999999999996 75.50000000000001 62.8 75.50000000000001 62.3 L 75.50000000000001 17.7 C 75.5 17.2 75.1 16.8 74.6 16.8 z" stroke-linecap="round" />
</g>
		<g transform="matrix(2.9291163848 0 0 0.1293103448 -19.013571628 49.1549106278)" id="caO0YL3YDjUoNGVbZ0Oj_"  >
<path style="stroke: none; stroke-width: 1; stroke-dasharray: none; stroke-linecap: butt; stroke-dashoffset: 0; stroke-linejoin: miter; stroke-miterlimit: 4; fill: rgb(0,0,0); fill-rule: nonzero; opacity: 1;" vector-effect="non-scaling-stroke"  transform=" translate(-40, -40)" d="M 74.6 16.8 L 5.4 16.8 L 5.4 16.8 C 4.9 16.8 4.5 17.2 4.5 17.7 L 4.5 62.3 C 4.5 62.8 4.9 63.199999999999996 5.4 63.199999999999996 L 74.60000000000001 63.199999999999996 C 75.10000000000001 63.199999999999996 75.50000000000001 62.8 75.50000000000001 62.3 L 75.50000000000001 17.7 C 75.5 17.2 75.1 16.8 74.6 16.8 z" stroke-linecap="round" />
</g>
		<g transform="matrix(1.5133805307 0 0 1.5133805307 -44.9943711841 -8.9682551626)" id="b2D6fJGqzZIm60I8UQS3M"  >
<g style="" vector-effect="non-scaling-stroke"   >
		<g transform="matrix(0.3493318809 0 0 0.3493318809 16.6380609373 24.5186593573)" id="XwIq2dbKZJnelOQoKESo4"  >
<path style="stroke: rgb(0,0,0); stroke-width: 4; stroke-dasharray: none; stroke-linecap: butt; stroke-dashoffset: 0; stroke-linejoin: miter; stroke-miterlimit: 4; fill: rgb(255,255,255); fill-opacity: 0; fill-rule: nonzero; opacity: 1;" vector-effect="non-scaling-stroke"  transform=" translate(-0.000005, 0)" d="M -8.33333 -11.7737 C 7.568809999999999 11.00917 8.33334 11.7737 8.33334 11.7737" stroke-linecap="round" />
</g>
		<g transform="matrix(0.857812982 0 0 1.0856683029 14.5272143951 3.8382488357)" id="dgyfesi_PfdxMzf50Y4ly"  >
<path style="stroke: none; stroke-width: 1; stroke-dasharray: none; stroke-linecap: butt; stroke-dashoffset: 0; stroke-linejoin: miter; stroke-miterlimit: 4; fill: rgb(0,0,0); fill-rule: nonzero; opacity: 1;" vector-effect="non-scaling-stroke"  transform=" translate(0, 0)" d="M -0.0005 1.7875 L -0.0005 1.7875 C 2.1875 1.7875 4.05283 1.8215000000000001 5.5955 1.8895000000000002 C 7.138170000000001 1.9581700000000002 8.43217 2.0755000000000003 9.477500000000001 2.2415000000000003 C 10.522170000000001 2.4075 11.34717 2.6175 11.9525 2.8715 C 12.5585 3.12483 13.0175 3.5005 13.329500000000001 3.9985 C 13.642170000000002 4.49717 13.842500000000001 4.9955 13.930500000000002 5.4935 C 14.018500000000001 5.9915 14.062500000000002 6.5625 14.062500000000002 7.2065 L 14.062500000000002 7.2065 C 14.062500000000002 7.90983 14.018500000000001 8.5495 13.930500000000002 9.1255 C 13.842500000000003 9.70217 13.632500000000002 10.22483 13.300500000000001 10.6935 C 12.9685 11.16217 12.480170000000001 11.5625 11.835500000000001 11.8945 C 11.190830000000002 12.226500000000001 10.312170000000002 12.509830000000001 9.1995 12.7445 C 8.086170000000001 12.9785 6.70417 13.14917 5.0535000000000005 13.2565 C 3.4028300000000007 13.36383 1.4058300000000004 13.4175 -0.9374999999999991 13.4175 L -0.9374999999999991 13.4175 C -3.515499999999999 13.4175 -5.649499999999999 13.3445 -7.339499999999999 13.198500000000001 C -9.02883 13.05183 -10.3715 12.7735 -11.3675 12.363500000000002 C -12.3635 11.952830000000002 -13.06183 11.381500000000003 -13.4625 10.649500000000002 C -13.8625 9.916830000000001 -14.0625 8.964500000000001 -14.0625 7.792500000000001 L -15.586500000000001 7.792500000000001 L -19.6875 7.792500000000001 C -19.6875 9.569830000000001 -19.37017 11.073830000000001 -18.735500000000002 12.3045 C -18.100830000000002 13.53517 -17.051170000000003 14.53617 -15.586500000000001 15.307500000000001 C -14.121170000000001 16.07883 -12.19217 16.6405 -9.799500000000002 16.9925 C -7.407500000000002 17.34383 -4.453500000000002 17.5195 -0.9375000000000018 17.5195 L -0.9375000000000018 17.5195 C 1.875169999999998 17.5195 4.340829999999999 17.436500000000002 6.4594999999999985 17.270500000000002 C 8.578829999999998 17.1045 10.40017 16.8505 11.923499999999999 16.5085 C 13.446829999999999 16.167170000000002 14.7115 15.71817 15.7175 15.161500000000002 C 16.723499999999998 14.604830000000002 17.5195 13.940500000000002 18.1055 13.168500000000002 C 18.691499999999998 12.397170000000001 19.101499999999998 11.508500000000002 19.3355 10.502500000000001 C 19.57017 9.49717 19.6875 8.3595 19.6875 7.089500000000001 L 19.6875 7.089500000000001 C 19.6875 5.820170000000001 19.57017 4.702170000000001 19.3355 3.735500000000001 C 19.101499999999998 2.768830000000001 18.69617 1.928830000000001 18.1195 1.215500000000001 C 17.543499999999998 0.5028300000000009 16.777169999999998 -0.15616999999999903 15.8205 -0.7614999999999992 C 14.863169999999998 -1.3668299999999993 13.652169999999998 -1.8161699999999992 12.1875 -2.1094999999999993 C 10.72283 -2.402169999999999 8.9895 -2.607169999999999 6.9875 -2.724499999999999 C 4.9855 -2.841829999999999 2.6561699999999995 -2.900499999999999 -0.0005000000000006111 -2.900499999999999 L -0.0005000000000006111 -2.900499999999999 C -2.187830000000001 -2.900499999999999 -4.052830000000001 -2.905499999999999 -5.5955 -2.9154999999999993 C -7.1388300000000005 -2.924829999999999 -8.432830000000001 -2.9831699999999994 -9.477500000000001 -3.090499999999999 C -10.52283 -3.1984999999999992 -11.348170000000001 -3.359829999999999 -11.953500000000002 -3.574499999999999 C -12.558830000000002 -3.789169999999999 -13.017830000000002 -4.101499999999999 -13.330500000000002 -4.511499999999999 C -13.643170000000003 -4.922169999999999 -13.843170000000002 -5.444829999999999 -13.930500000000002 -6.0794999999999995 C -14.018500000000001 -6.714169999999999 -14.062500000000002 -7.363499999999999 -14.062500000000002 -8.0275 L -14.062500000000002 -8.0275 C -14.062500000000002 -9.16017 -13.808500000000002 -10.048829999999999 -13.300500000000001 -10.6935 C -12.793170000000002 -11.33817 -11.953500000000002 -11.8165 -10.781500000000001 -12.1285 C -9.6095 -12.441170000000001 -8.066500000000001 -12.636500000000002 -6.152500000000002 -12.714500000000001 C -4.238500000000002 -12.793170000000002 -1.8751700000000016 -12.832500000000001 0.9374999999999982 -12.832500000000001 L 0.9374999999999982 -12.832500000000001 C 3.515499999999998 -12.832500000000001 5.649169999999998 -12.759170000000001 7.338499999999998 -12.6125 C 9.027829999999998 -12.46583 10.370829999999998 -12.20217 11.367499999999998 -11.8215 C 12.363499999999998 -11.44083 13.061499999999999 -10.91817 13.461499999999997 -10.2535 C 13.862169999999997 -9.589500000000001 14.062499999999996 -8.730170000000001 14.062499999999996 -7.675500000000001 L 14.062499999999996 -7.675500000000001 L 19.687499999999996 -7.675500000000001 C 19.687499999999996 -9.374830000000001 19.404169999999997 -10.839830000000001 18.837499999999995 -12.070500000000001 C 18.271499999999996 -13.30117 17.280499999999996 -14.3215 15.864499999999996 -15.1315 C 14.448499999999996 -15.94217 12.534169999999996 -16.542830000000002 10.121499999999996 -16.933500000000002 C 7.709499999999996 -17.324170000000002 4.648169999999996 -17.5195 0.9374999999999964 -17.5195 L 0.9374999999999964 -17.5195 C -2.8125000000000036 -17.5195 -5.996170000000004 -17.3535 -8.613500000000004 -17.0215 C -11.230830000000005 -16.6895 -13.359830000000004 -16.1475 -15.000500000000002 -15.3955 C -16.641170000000002 -14.6435 -17.832500000000003 -13.666830000000001 -18.5745 -12.4655 C -19.3165 -11.26483 -19.6875 -9.7855 -19.6875 -8.0275 L -19.6875 -8.0275 C -19.6875 -6.73817 -19.5705 -5.54183 -19.3365 -4.4384999999999994 C -19.10183 -3.3351699999999997 -18.70117 -2.4074999999999993 -18.134500000000003 -1.6554999999999995 C -17.568500000000004 -0.9034999999999995 -16.802170000000004 -0.3028299999999995 -15.835500000000003 0.14650000000000052 C -14.868170000000003 0.5958300000000005 -13.657170000000004 0.9425000000000006 -12.202500000000004 1.1865000000000006 C -10.747170000000004 1.4305000000000005 -9.013830000000004 1.5915000000000006 -7.002500000000004 1.6695000000000007 C -4.990500000000004 1.7481700000000007 -2.656500000000004 1.7875000000000005 -0.0005000000000041638 1.7875000000000005 z" stroke-linecap="round" />
</g>
		<g transform="matrix(1.1059720139 0 0 1 -14.527214826 -9.7315882298)" id="qUZrX_lf9WwPyJJQKCCvY"  >
<path style="stroke: none; stroke-width: 1; stroke-dasharray: none; stroke-linecap: butt; stroke-dashoffset: 0; stroke-linejoin: miter; stroke-miterlimit: 4; fill: rgb(0,0,0); fill-rule: nonzero; opacity: 1;" vector-effect="non-scaling-stroke"  transform=" translate(0, 0)" d="M 8.61 -20.4 L 13.469999999999999 -20.4 L -0.8100000000000005 -5.339999999999998 L 15.269999999999998 20.4 L 10.649999999999999 20.4 L -3.7500000000000018 -2.6400000000000006 L -11.130000000000003 5.039999999999999 L -11.130000000000003 20.4 L -15.270000000000003 20.4 L -15.270000000000003 -20.4 L -11.130000000000003 -20.4 L -11.130000000000003 0.240000000000002 z" stroke-linecap="round" />
</g>
		<g transform="matrix(1.0606735415 0 0 1.0606735415 -12.1999248672 -6.9038641702)" id="dlFRPoLtdAIwtMO6WtAfN"  >
<path style="stroke: rgb(255,255,255); stroke-width: 1; stroke-dasharray: none; stroke-linecap: butt; stroke-dashoffset: 0; stroke-linejoin: miter; stroke-miterlimit: 4; fill: rgb(255,255,255); fill-opacity: 0; fill-rule: nonzero; opacity: 1;" vector-effect="non-scaling-stroke"  transform=" translate(-0.000005, 0)" d="M -8.33333 -11.7737 C 7.568809999999999 11.00917 8.33334 11.7737 8.33334 11.7737" stroke-linecap="round" />
</g>
		<g transform="matrix(0.4889681158 0 0 0.4889681158 16.7495320745 20.8993896985)" id="Ys4T-mRGxQicuCtf9GWGR"  >
<path style="stroke: rgb(255,255,255); stroke-width: 1; stroke-dasharray: none; stroke-linecap: butt; stroke-dashoffset: 0; stroke-linejoin: miter; stroke-miterlimit: 4; fill: rgb(255,255,255); fill-opacity: 0; fill-rule: nonzero; opacity: 1;" vector-effect="non-scaling-stroke"  transform=" translate(-0.000005, 0)" d="M -8.33333 -11.7737 C 7.568809999999999 11.00917 8.33334 11.7737 8.33334 11.7737" stroke-linecap="round" />
</g>
		<g transform="matrix(1 0 0 1 9.3376384711 18.3578882297)" id="3DRPVXYoYuc_eTQPMKN5W"  >
<path style="stroke: rgb(255,255,255); stroke-width: 1; stroke-dasharray: none; stroke-linecap: butt; stroke-dashoffset: 0; stroke-linejoin: miter; stroke-miterlimit: 4; fill: rgb(255,255,255); fill-opacity: 0; fill-rule: nonzero; opacity: 1;" vector-effect="non-scaling-stroke"  transform=" translate(-0.000005, 0)" d="M -8.33333 -11.7737 C 7.568809999999999 11.00917 8.33334 11.7737 8.33334 11.7737" stroke-linecap="round" />
</g>
		<g transform="matrix(0.4583540095 0 0 0.0011280097 -3.7572584078 5.5841466077)" id="kFSzffFjIp08pksiqqkoe"  >
<path style="stroke: rgb(0,0,0); stroke-width: 1; stroke-dasharray: none; stroke-linecap: butt; stroke-dashoffset: 0; stroke-linejoin: miter; stroke-miterlimit: 4; fill: rgb(255,255,255); fill-opacity: 0; fill-rule: nonzero; opacity: 1;" vector-effect="non-scaling-stroke"  transform=" translate(-0.000005, 0.0000022222)" d="M 2.69822 -0.0369 C -2.15857 0.12913999999999998 -2.6982099999999996 -0.0369 -2.6982099999999996 -0.0369" stroke-linecap="round" />
</g>
		<g transform="matrix(3.4756051645 0 0 3.4756051645 19.2595945385 28.503343032)" id="0G2Aqw27hEvzuwEzH7CuD"  >
<path style="stroke: rgb(255,255,255); stroke-width: 4; stroke-dasharray: none; stroke-linecap: butt; stroke-dashoffset: 0; stroke-linejoin: miter; stroke-miterlimit: 4; fill: rgb(255,255,255); fill-opacity: 0; fill-rule: nonzero; opacity: 1;" vector-effect="non-scaling-stroke"  transform=" translate(-0.000005, 0.0000022222)" d="M 2.69822 -0.0369 C -2.15857 0.12913999999999998 -2.6982099999999996 -0.0369 -2.6982099999999996 -0.0369" stroke-linecap="round" />
</g>
</g>
</g>
</g>
</g>
		<g transform="matrix(0.8876622719 0 0 0.0930804532 23.1415832983 102.7386256497)" id="SJZlnCyI7tHSUt7Gj13Kk"  >
<path style="stroke: rgb(0,0,0); stroke-width: 0; stroke-dasharray: none; stroke-linecap: butt; stroke-dashoffset: 0; stroke-linejoin: miter; stroke-miterlimit: 4; fill: rgb(0,0,0); fill-rule: nonzero; opacity: 1;" vector-effect="non-scaling-stroke"  transform=" translate(0.000005, 0.000005)" d="M -71.59091 2.45216 C -71.59091 -38.4407 -68.11477 -71.59091 -63.826739999999994 -71.59091 L 64.85111 -71.59091 L 64.85111 -71.59091 C 68.57339 -71.59091 71.5909 -42.81446 71.5909 -7.316909999999993 L 71.5909 71.5909 L -71.59091000000001 71.5909 z" stroke-linecap="round" />
</g>
		<g transform="matrix(-0.8876622719 0 0 0.0930804532 23.1415841547 102.7386255567)" id="XRBXKUz1IuWl2FyhwjwGb"  >
<path style="stroke: rgb(0,0,0); stroke-width: 0; stroke-dasharray: none; stroke-linecap: butt; stroke-dashoffset: 0; stroke-linejoin: miter; stroke-miterlimit: 4; fill: rgb(0,0,0); fill-rule: nonzero; opacity: 1;" vector-effect="non-scaling-stroke"  transform=" translate(0.000005, 0.000005)" d="M -71.59091 2.45216 C -71.59091 -38.4407 -68.11477 -71.59091 -63.826739999999994 -71.59091 L 64.85111 -71.59091 L 64.85111 -71.59091 C 68.57339 -71.59091 71.5909 -42.81446 71.5909 -7.316909999999993 L 71.5909 71.5909 L -71.59091000000001 71.5909 z" stroke-linecap="round" />
</g>
</g>
</g>
</svg>